# File created by Blade
# Date/Time:  Wed Apr 08 17:00:23 2015
#---------------------------------------------------------
:version 1.10
:name HOM
:units
  mass 1.0
  length 1.000000
  angle deg
:documentation
     Acclaim Skeleton File
:root
   axis xyz
   order TX TY TZ RX RY RZ
   position 0.000000 0.000000 0.000000
   orientation 0 0 0
:bonedata
   begin
      id 1
      name Spine_dum
      direction 0.000000 1.000000 0.000000
      length 5.893853
      axis 0.0 0.0 0.0 xyz
   end
   begin
      id 2
      name LeftUpLeg_dum
      direction 1.000000 0.000000 0.000000
      length 3.697939
      axis 0.0 0.0 0.0 xyz
   end
   begin
      id 3
      name RightUpLeg_dum
      direction -1.000000 0.000000 0.000000
      length 3.697939
      axis 0.0 0.0 0.0 xyz
   end
   begin
      id 4
      name Spine
      direction 0.000000 1.000000 0.000000
      length 0.000000
      axis 0.0 0.0 0.0 xyz
      dof rx ry rz
   end
   begin
      id 5
      name Spine_dum1
      direction 0.000000 1.000000 0.000000
      length 16.447146
      axis 0.0 0.0 0.0 xyz
   end
   begin
      id 6
      name Spine_dum2
      direction 0.000000 1.000000 0.000000
      length 10.900383
      axis 0.0 0.0 0.0 xyz
   end
   begin
      id 7
      name Spine_dum3
      direction 0.000000 1.000000 0.000000
      length 10.900383
      axis 0.0 0.0 0.0 xyz
   end
   begin
      id 8
      name Head
      direction 0.000000 1.000000 0.000000
      length 4.527550
      axis 0.0 0.0 0.0 xyz
      dof rx ry rz
   end
   begin
      id 9
      name LeftShoulder
      direction 1.000000 0.000000 0.000000
      length 8.219464
      axis 0.0 0.0 -90.0 xyz
      dof rx ry rz
   end
   begin
      id 10
      name LeftArm
      direction 1.000000 0.000000 0.000000
      length 11.094937
      axis 0.0 0.0 -90.0 xyz
      dof rx ry rz
   end
   begin
      id 11
      name LeftForeArm
      direction 1.000000 0.000000 0.000000
      length 9.103875
      axis 0.0 0.0 -90.0 xyz
      dof ry rz rx
   end
   begin
      id 12
      name LeftHand
      direction 0.000000 0.000000 0.000000
      length 0.000000
      axis 0.0 0.0 -90.0 xyz
      dof rx ry rz
   end
   begin
      id 13
      name LeftHand_dum1
      direction 0.000000 0.000000 0.000000
      length 0.000000
      axis 0.0 0.0 -90.0 xyz
   end
   begin
      id 14
      name LeftHand_dum2
      direction 1.000000 0.000000 0.000000
      length 3.937000
      axis 0.0 0.0 -90.0 xyz
   end
   begin
      id 15
      name LeftHandThumb1
      direction 0.000000 0.000000 1.000000
      length 3.937000
      axis 0.0 0.0 -90.0 xyz
      dof rx rz ry
   end
   begin
      id 16
      name RightShoulder
      direction -1.000000 0.000000 0.000000
      length 8.219464
      axis 0.0 0.0 90.0 xyz
      dof rx ry rz
   end
   begin
      id 17
      name RightArm
      direction -1.000000 0.000000 0.000000
      length 11.094937
      axis 0.0 0.0 90.0 xyz
      dof rx ry rz
   end
   begin
      id 18
      name RightForeArm
      direction -1.000000 0.000000 0.000000
      length 9.103875
      axis 0.0 0.0 90.0 xyz
      dof ry rz rx
   end
   begin
      id 19
      name RightHand
      direction 0.000000 0.000000 0.000000
      length 0.000000
      axis 0.0 0.0 90.0 xyz
      dof rx ry rz
   end
   begin
      id 20
      name RightHand_dum1
      direction 0.000000 0.000000 0.000000
      length 0.000000
      axis 0.0 0.0 90.0 xyz
   end
   begin
      id 21
      name RightHand_dum2
      direction -1.000000 0.000000 0.000000
      length 3.937000
      axis 0.0 0.0 90.0 xyz
   end
   begin
      id 22
      name RightHandThumb1
      direction 0.000000 0.000000 1.000000
      length 3.937000
      axis 0.0 0.0 90.0 xyz
      dof rx rz ry
   end
   begin
      id 23
      name LeftUpLeg
      direction 0.000000 -1.000000 0.000000
      length 16.181467
      axis 0.0 0.0 0.0 xyz
      dof rx ry rz
   end
   begin
      id 24
      name LeftLeg
      direction 0.000000 -1.000000 0.000000
      length 16.501392
      axis 0.0 0.0 0.0 xyz
      dof rx ry rz
   end
   begin
      id 25
      name LeftFoot
      direction 0.000000 -0.258819 0.965926
      length 6.408245
      axis 15.0 0.0 0.0 xyz
      dof rx ry rz
   end
   begin
      id 26
      name LeftToeBase
      direction 0.000000 0.000000 1.000000
      length 2.952750
      axis 0.0 0.0 0.0 xyz
      dof rx ry rz
   end
   begin
      id 27
      name RightUpLeg
      direction 0.000000 -1.000000 0.000000
      length 16.181467
      axis 0.0 0.0 0.0 xyz
      dof rx ry rz
   end
   begin
      id 28
      name RightLeg
      direction 0.000000 -1.000000 0.000000
      length 16.501392
      axis 0.0 0.0 0.0 xyz
      dof rx ry rz
   end
   begin
      id 29
      name RightFoot
      direction 0.000000 -0.258819 0.965926
      length 6.408245
      axis 15.0 0.0 0.0 xyz
      dof rx ry rz
   end
   begin
      id 30
      name RightToeBase
      direction 0.000000 0.000000 1.000000
      length 2.952750
      axis 0.0 0.0 0.0 xyz
      dof rx ry rz
   end
:hierarchy
   begin
      root Spine_dum LeftUpLeg_dum RightUpLeg_dum
      Spine_dum Spine
      LeftUpLeg_dum LeftUpLeg
      RightUpLeg_dum RightUpLeg
      Spine Spine_dum1 Spine_dum2 Spine_dum3
      Spine_dum1 Head
      Spine_dum2 LeftShoulder
      Spine_dum3 RightShoulder
      LeftShoulder LeftArm
      LeftArm LeftForeArm
      LeftForeArm LeftHand
      LeftHand LeftHand_dum1 LeftHand_dum2
      LeftHand_dum1 LeftHandThumb1
      RightShoulder RightArm
      RightArm RightForeArm
      RightForeArm RightHand
      RightHand RightHand_dum1 RightHand_dum2
      RightHand_dum1 RightHandThumb1
      LeftUpLeg LeftLeg
      LeftLeg LeftFoot
      LeftFoot LeftToeBase
      RightUpLeg RightLeg
      RightLeg RightFoot
      RightFoot RightToeBase
   end

# File created by Blade
# Date/Time:  Wed Apr 08 17:00:17 2015
# Frame Rate: 120.000 fps
#------------------------------------------------------
:FULLY-SPECIFIED
:DEGREES
1
root 2.060696 35.926417 2.178927 -158.055975 -87.460509 151.581666
Spine 12.805296 2.273541 -2.889083
Head -1.571715 3.443379 1.850735
LeftShoulder -5.698470 8.016881 28.719119
LeftArm 12.457380 -39.645792 -38.883539
LeftForeArm 18.377871 0.000000 2.585427
LeftHand -12.640486 -0.000000 -12.229539
LeftHandThumb1 -26.253704 0.000000 33.147579
RightShoulder -22.274794 -37.896391 -14.216748
RightArm 54.766561 52.122023 56.946556
RightForeArm 7.144621 -0.000000 -2.850308
RightHand -0.953158 -0.000000 5.641801
RightHandThumb1 -24.326973 -0.000000 -32.862282
LeftUpLeg 11.941080 14.168437 7.538935
LeftLeg 6.376195 -0.000000 -0.000000
LeftFoot -11.712695 4.196864 -11.835839
LeftToeBase 9.022781 -0.000000 -0.000000
RightUpLeg 10.731060 -5.447844 -9.566588
RightLeg 3.118899 -0.000000 -0.000000
RightFoot -10.654340 1.891768 18.389686
RightToeBase 14.509152 -0.000000 -0.000000
2
root 2.060190 35.926721 2.184804 -157.526658 -87.471319 151.049401
Spine 12.800066 2.300477 -2.878269
Head -1.568436 3.433908 1.822218
LeftShoulder -5.695424 8.046439 28.657300
LeftArm 12.460788 -39.425812 -39.017302
LeftForeArm 18.094525 -0.000000 2.875329
LeftHand -12.733932 -0.000000 -12.015184
LeftHandThumb1 -26.253704 0.000000 33.147579
RightShoulder -22.260195 -37.877853 -14.208673
RightArm 54.793806 52.126895 56.993898
RightForeArm 7.128832 -0.000000 -2.834854
RightHand -0.946017 -0.000000 5.603179
RightHandThumb1 -24.326973 -0.000000 -32.862282
LeftUpLeg 11.940020 14.186557 7.522015
LeftLeg 6.378256 -0.000000 -0.000000
LeftFoot -11.697736 4.157889 -11.827649
LeftToeBase 8.995144 -0.000000 -0.000000
RightUpLeg 10.736362 -5.454898 -9.591882
RightLeg 3.123776 -0.000000 -0.000000
RightFoot -10.666766 1.874546 18.348912
RightToeBase 14.512202 -0.000000 -0.000000
3
root 2.060043 35.926928 2.190926 -156.817455 -87.490399 150.337807
Spine 12.802370 2.321631 -2.870398
Head -1.595837 3.419699 1.795959
LeftShoulder -5.714589 8.077720 28.593811
LeftArm 12.514552 -39.142510 -39.179453
LeftForeArm 17.653750 -0.000000 3.143801
LeftHand -12.806313 -0.000000 -11.822184
LeftHandThumb1 -26.253704 0.000000 33.147579
RightShoulder -22.231299 -38.006459 -14.174600
RightArm 54.910765 52.231043 57.175998
RightForeArm 7.129693 -0.000000 -2.766397
RightHand -0.894255 0.000000 5.646910
RightHandThumb1 -24.326973 -0.000000 -32.862282
LeftUpLeg 11.934947 14.178427 7.496300
LeftLeg 6.380069 -0.000000 -0.000000
LeftFoot -11.689763 4.128474 -11.833917
LeftToeBase 9.001672 -0.000000 -0.000000
RightUpLeg 10.740549 -5.480673 -9.621520
RightLeg 3.133014 -0.000000 -0.000000
RightFoot -10.665114 1.869361 18.364273
RightToeBase 14.486330 -0.000000 -0.000000
4
root 2.060223 35.926592 2.197236 -156.151610 -87.506638 149.670492
Spine 12.800218 2.330671 -2.857872
Head -1.613775 3.433714 1.762971
LeftShoulder -5.741839 8.136595 28.506222
LeftArm 12.581918 -38.991524 -39.407941
LeftForeArm 17.356348 -0.000000 3.520144
LeftHand -12.808349 0.000000 -11.648293
LeftHandThumb1 -26.253704 0.000000 33.147579
RightShoulder -22.200258 -37.969649 -14.185618
RightArm 54.872890 52.195719 57.141221
RightForeArm 7.121861 -0.000000 -2.748003
RightHand -0.962989 -0.000000 5.597323
RightHandThumb1 -24.326973 -0.000000 -32.862282
LeftUpLeg 11.931033 14.181897 7.473875
LeftLeg 6.377818 -0.000000 -0.000000
LeftFoot -11.674902 4.096936 -11.821402
LeftToeBase 8.978739 -0.000000 -0.000000
RightUpLeg 10.748013 -5.485378 -9.649435
RightLeg 3.134318 -0.000000 -0.000000
RightFoot -10.679020 1.858735 18.400928
RightToeBase 14.466169 -0.000000 -0.000000
5
root 2.060347 35.926802 2.204184 -155.360526 -87.533435 148.880192
Spine 12.797301 2.341597 -2.839951
Head -1.641995 3.430564 1.736561
LeftShoulder -5.794343 8.209216 28.373224
LeftArm 12.740818 -38.802964 -39.653239
LeftForeArm 17.021166 0.000000 3.920274
LeftHand -13.019393 -0.000000 -11.503398
LeftHandThumb1 -26.253704 0.000000 33.147579
RightShoulder -22.180825 -37.966531 -14.158543
RightArm 54.862313 52.205147 57.112394
RightForeArm 7.156803 -0.000000 -2.738554
RightHand -0.967516 0.000000 5.655350
RightHandThumb1 -24.326973 -0.000000 -32.862282
LeftUpLeg 11.922996 14.158170 7.443332
LeftLeg 6.373929 -0.000000 -0.000000
LeftFoot -11.671724 4.082203 -11.824646
LeftToeBase 8.963354 -0.000000 -0.000000
RightUpLeg 10.756591 -5.495973 -9.676220
RightLeg 3.134088 -0.000000 -0.000000
RightFoot -10.688048 1.835494 18.399581
RightToeBase 14.504425 -0.000000 -0.000000
6
root 2.060834 35.926596 2.211616 -154.491906 -87.552791 148.009227
Spine 12.797028 2.361051 -2.822035
Head -1.667773 3.436150 1.694419
LeftShoulder -5.835263 8.282672 28.247317
LeftArm 12.908345 -38.683765 -39.983715
LeftForeArm 16.739119 0.000000 4.391425
LeftHand -13.071564 -0.000000 -11.279543
LeftHandThumb1 -26.253704 0.000000 33.147579
RightShoulder -22.143908 -37.952496 -14.164138
RightArm 54.827009 52.196151 57.088699
RightForeArm 7.156278 -0.000000 -2.730539
RightHand -0.928557 0.000000 5.646695
RightHandThumb1 -24.326973 -0.000000 -32.862282
LeftUpLeg 11.913712 14.148047 7.409373
LeftLeg 6.380782 -0.000000 -0.000000
LeftFoot -11.668003 4.067071 -11.809436
LeftToeBase 8.982033 -0.000000 -0.000000
RightUpLeg 10.765087 -5.511566 -9.711880
RightLeg 3.135536 -0.000000 -0.000000
RightFoot -10.693001 1.827986 18.402442
RightToeBase 14.469837 -0.000000 -0.000000
7
root 2.060942 35.926844 2.219903 -153.568385 -87.575037 147.087953
Spine 12.782418 2.389182 -2.806274
Head -1.677281 3.435651 1.688034
LeftShoulder -5.892646 8.393337 28.119449
LeftArm 13.159637 -38.367026 -40.315957
LeftForeArm 16.469912 -0.000000 4.826844
LeftHand -13.266931 -0.000000 -11.234574
LeftHandThumb1 -26.253704 0.000000 33.147579
RightShoulder -22.101927 -37.967984 -14.139023
RightArm 54.807098 52.228764 57.067394
RightForeArm 7.148608 -0.000000 -2.721603
RightHand -0.983917 -0.000000 5.597430
RightHandThumb1 -24.326973 -0.000000 -32.862282
LeftUpLeg 11.905131 14.139844 7.375817
LeftLeg 6.375244 -0.000000 -0.000000
LeftFoot -11.658721 4.036354 -11.798573
LeftToeBase 8.993755 -0.000000 -0.000000
RightUpLeg 10.771110 -5.546266 -9.752579
RightLeg 3.136558 -0.000000 -0.000000
RightFoot -10.697127 1.837638 18.426384
RightToeBase 14.496256 -0.000000 -0.000000
